HIERARCHY
ROOT Hips
{
	OFFSET 0.00000 0.00000 0.00000
	CHANNELS 6 Xposition Yposition Zposition Zrotation Yrotation Xrotation 
	JOINT LHipJoint
	{
		OFFSET 0 0 0
		CHANNELS 3 Zrotation Yrotation Xrotation
		JOINT LeftUpLeg
		{
			OFFSET 1.38691 -1.89057 0.78360
			CHANNELS 3 Zrotation Yrotation Xrotation
			JOINT LeftLeg
			{
				OFFSET 2.59731 -7.13606 0.00000
				CHANNELS 3 Zrotation Yrotation Xrotation
				JOINT LeftFoot
				{
					OFFSET 2.70078 -7.42033 0.00000
					CHANNELS 3 Zrotation Yrotation Xrotation
					JOINT LeftToeBase
					{
						OFFSET 0.16751 -0.46024 2.68862
						CHANNELS 3 Zrotation Yrotation Xrotation
						End Site
						{
							OFFSET 0.00000 -0.00000 1.37057
						}
					}
				}
			}
		}
	}
	JOINT RHipJoint
	{
		OFFSET 0 0 0
		CHANNELS 3 Zrotation Yrotation Xrotation
		JOINT RightUpLeg
		{
			OFFSET -1.38190 -1.89056 0.78359
			CHANNELS 3 Zrotation Yrotation Xrotation
			JOINT RightLeg
			{
				OFFSET -2.57785 -7.08258 0.00000
				CHANNELS 3 Zrotation Yrotation Xrotation
				JOINT RightFoot
				{
					OFFSET -2.77908 -7.63547 0.00000
					CHANNELS 3 Zrotation Yrotation Xrotation
					JOINT RightToeBase
					{
						OFFSET -0.17921 -0.49237 2.62360
						CHANNELS 3 Zrotation Yrotation Xrotation
						End Site
						{
							OFFSET -0.00000 -0.00000 1.34085
						}
					}
				}
			}
		}
	}
	JOINT LowerBack
	{
		OFFSET 0 0 0
		CHANNELS 3 Zrotation Yrotation Xrotation
		JOINT Spine
		{
			OFFSET -0.10749 2.04110 -0.22549
			CHANNELS 3 Zrotation Yrotation Xrotation
			JOINT Spine1
			{
				OFFSET 0.01213 2.05840 0.00691
				CHANNELS 3 Zrotation Yrotation Xrotation
				JOINT Neck
				{
					OFFSET 0 0 0
					CHANNELS 3 Zrotation Yrotation Xrotation
					JOINT Neck1
					{
						OFFSET 0.06585 1.81215 0.35449
						CHANNELS 3 Zrotation Yrotation Xrotation
						JOINT Head
						{
							OFFSET -0.04315 1.87555 -0.27307
							CHANNELS 3 Zrotation Yrotation Xrotation
							End Site
							{
								OFFSET -0.01775 1.89740 -0.13294
							}
						}
					}
				}
				JOINT LeftShoulder
				{
					OFFSET 0 0 0
					CHANNELS 3 Zrotation Yrotation Xrotation
					JOINT LeftArm
					{
						OFFSET 2.98012 1.63606 0.28888
						CHANNELS 3 Zrotation Yrotation Xrotation
						JOINT LeftForeArm
						{
							OFFSET 5.59864 -0.00000 -0.00000
							CHANNELS 3 Zrotation Yrotation Xrotation
							JOINT LeftHand
							{
								OFFSET 3.59542 -0.00000 -0.00000
								CHANNELS 3 Zrotation Yrotation Xrotation
								JOINT LeftFingerBase
								{
									OFFSET 0 0 0
									CHANNELS 3 Zrotation Yrotation Xrotation
									JOINT LeftHandIndex1
									{
										OFFSET 0.57201 -0.00000 -0.00000
										CHANNELS 3 Zrotation Yrotation Xrotation
										End Site
										{
											OFFSET 0.46117 -0.00000 -0.00000
										}
									}
								}
								JOINT LThumb
								{
									OFFSET 0 0 0
									CHANNELS 3 Zrotation Yrotation Xrotation
									End Site
									{
										OFFSET 0.46821 -0.00000 0.46821
									}
								}
							}
						}
					}
				}
				JOINT RightShoulder
				{
					OFFSET 0 0 0
					CHANNELS 3 Zrotation Yrotation Xrotation
					JOINT RightArm
					{
						OFFSET -3.08694 1.53706 0.36335
						CHANNELS 3 Zrotation Yrotation Xrotation
						JOINT RightForeArm
						{
							OFFSET -5.80940 -0.00000 -0.00000
							CHANNELS 3 Zrotation Yrotation Xrotation
							JOINT RightHand
							{
								OFFSET -3.66953 -0.00000 -0.00000
								CHANNELS 3 Zrotation Yrotation Xrotation
								JOINT RightFingerBase
								{
									OFFSET 0 0 0
									CHANNELS 3 Zrotation Yrotation Xrotation
									JOINT RightHandIndex1
									{
										OFFSET -0.57843 -0.00000 -0.00000
										CHANNELS 3 Zrotation Yrotation Xrotation
										End Site
										{
											OFFSET -0.46635 -0.00000 -0.00000
										}
									}
								}
								JOINT RThumb
								{
									OFFSET 0 0 0
									CHANNELS 3 Zrotation Yrotation Xrotation
									End Site
									{
										OFFSET -0.47347 -0.00000 0.47347
									}
								}
							}
						}
					}
				}
			}
		}
	}
}
MOTION
Frames: 5
Frame Time: .0083333
18.6398 18.3620 24.9185 -50.2850 80.1259 -43.4748 0.0000 0.0000 0.0000 5.1471 -19.6375 -30.2738 10.2188 17.5311 60.2172 4.5003 -9.1748 -38.7523 2.1711 -9.2137 -26.4662 0.0000 0.0000 0.0000 20.1894 7.2656 -39.2115 -9.6729 -17.2218 58.3894 -1.7979 15.8258 -24.9109 -0.2410 3.1591 -8.7219 -7.5806 -3.2478 17.1061 -0.2082 -5.6747 1.1557 5.3423 -2.4559 -7.6057 -7.7697 -13.8602 -14.1090 10.8762 -21.8145 33.5890 1.7320 -8.5988 16.7372 -0.0000 0.0000 0.0000 -77.5784 -25.2974 50.3094 35.3087 -45.0313 -15.0313 -0.0000 0.0000 -25.7520 36.8699 -3.4241 -2.5648 -7.1250 0.0000 -0.0000 7.7341 25.6937 -3.6476 -0.0000 0.0000 0.0000 78.3459 -20.2360 40.8527 -43.0954 49.8006 -20.7736 0.0000 -0.0000 -3.1069 -41.3601 7.3735 -6.4462 7.1250 -0.0000 -0.0000 -10.4165 -20.2719 -6.2653
18.5759 18.3239 25.3242 -49.2179 79.9723 -42.5505 0.0000 0.0000 0.0000 5.3155 -19.7843 -30.4620 10.3745 17.6151 60.7329 4.4921 -9.0860 -38.7214 2.1403 -9.1525 -26.2735 0.0000 0.0000 0.0000 20.1723 7.4409 -39.6826 -9.8657 -17.3337 59.0387 -1.7359 15.6178 -24.4843 -0.2048 2.9136 -8.0384 -7.5734 -3.1283 17.0917 -0.3310 -5.5210 1.1833 5.1717 -2.3837 -7.6023 -7.5574 -13.9156 -14.1730 10.5894 -21.8712 33.7474 1.5660 -8.6219 16.7548 -0.0000 0.0000 0.0000 -76.9160 -24.6314 49.5786 35.0252 -44.8301 -14.8311 -0.0000 0.0000 -26.0410 37.6727 -3.1846 -2.4561 -7.1250 0.0000 -0.0000 8.3622 25.9455 -3.9000 -0.0000 0.0000 0.0000 78.5897 -20.1882 40.5737 -41.8628 49.1356 -19.8367 0.0000 -0.0000 -2.8648 -40.8787 7.5487 -6.4872 7.1250 -0.0000 -0.0000 -10.0515 -20.1110 -6.0757
18.5114 18.2877 25.7328 -47.9208 79.7351 -41.4635 0.0000 0.0000 0.0000 5.4926 -19.8453 -30.5630 10.5374 17.7012 61.2700 4.4786 -9.0445 -38.6628 2.0947 -9.0606 -25.9850 0.0000 0.0000 0.0000 20.2211 7.6795 -40.1015 -10.0695 -17.4487 59.7203 -1.7317 15.2260 -24.3713 -0.2296 3.0842 -8.5134 -7.6842 -3.0334 17.1080 -0.3628 -5.4149 1.2479 5.1752 -2.3327 -7.5481 -7.7908 -13.9345 -14.1269 10.6739 -21.8818 33.8193 1.6351 -8.6411 16.8353 0.0000 0.0000 0.0000 -76.3416 -24.0278 48.7037 34.6059 -44.5286 -14.5363 -0.0000 0.0000 -26.1526 38.4689 -2.9698 -2.3572 -7.1250 0.0000 -0.0000 8.9846 26.1704 -4.1490 0.0000 0.0000 0.0000 78.6008 -20.0612 40.4985 -40.7312 48.4972 -18.9850 0.0000 -0.0000 -2.5756 -40.6509 7.4896 -6.3861 7.1250 -0.0000 -0.0000 -9.9022 -20.2175 -5.9586
18.4464 18.2496 26.1387 -45.9253 79.4179 -39.6949 0.0000 0.0000 0.0000 5.5733 -19.7199 -30.6248 10.7001 17.7852 61.8037 4.4879 -8.9396 -38.7138 2.0789 -9.0286 -25.8849 0.0000 0.0000 0.0000 20.2232 8.0140 -40.4988 -10.2758 -17.5621 60.4063 -1.7141 14.8242 -24.1751 -0.2400 3.1524 -8.7034 -7.7974 -2.8518 17.0986 -0.4618 -5.1969 1.3165 5.0825 -2.2282 -7.4975 -8.0607 -14.0068 -14.0092 10.9280 -22.0156 33.7792 1.7555 -8.7036 16.8969 -0.0000 0.0000 0.0000 -75.7645 -23.4897 48.0878 34.1484 -44.1943 -14.2164 -0.0000 0.0000 -26.2100 39.2247 -2.6834 -2.1886 -7.1250 0.0000 -0.0000 9.5883 26.4917 -4.3618 -0.0000 0.0000 0.0000 78.7671 -19.9743 40.1108 -39.6673 47.8715 -18.1921 0.0000 -0.0000 -2.3388 -40.3526 7.5947 -6.4071 7.1250 -0.0000 -0.0000 -9.6768 -20.1225 -5.8399
18.3816 18.2137 26.5430 -43.5151 79.0672 -37.5472 0.0000 0.0000 0.0000 5.5532 -19.5234 -30.6067 10.8509 17.8614 62.2965 4.4958 -8.9062 -38.7530 2.0431 -8.9553 -25.6555 0.0000 0.0000 0.0000 20.1952 8.3204 -40.8571 -10.4658 -17.6636 61.0343 -1.7114 14.2644 -24.0457 -0.2920 3.4751 -9.6045 -8.0274 -2.7438 17.0832 -0.5454 -5.0950 1.3980 5.0944 -2.1785 -7.4018 -8.2499 -13.9690 -13.9692 11.0522 -21.9605 33.7868 1.8500 -8.6905 16.9375 0.0000 0.0000 0.0000 -75.1837 -22.9085 47.2176 33.7207 -43.8767 -13.9191 -0.0000 0.0000 -26.3081 40.0651 -2.2887 -1.9237 -7.1250 0.0000 -0.0000 10.2742 26.9529 -4.5700 0.0000 0.0000 0.0000 78.7380 -19.7865 39.9336 -38.6819 47.2693 -17.4648 0.0000 -0.0000 -2.0451 -40.1263 7.6341 -6.3889 7.1250 -0.0000 -0.0000 -9.5123 -20.1022 -5.7423
